<?xml version="1.0" encoding="utf-8"?>
<!-- Generator: Adobe Illustrator 23.0.1, SVG Export Plug-In . SVG Version: 6.00 Build 0)  -->
<svg version="1.1" id="Layer_1" xmlns="http://www.w3.org/2000/svg" xmlns:xlink="http://www.w3.org/1999/xlink" x="0px" y="0px"
	 viewBox="0 0 1000 500" style="enable-background:new 0 0 1000 500;" xml:space="preserve">
<style type="text/css">
	.st0{fill:url(#SVGID_1_);}
	.st1{fill:#F4737A;}
	.st2{fill:#FFFFFF;}
	.st3{fill:url(#SVGID_2_);}
	.st4{fill:url(#SVGID_3_);}
	.st5{font-family:'CaviarDreams-Bold';}
	.st6{font-size:95.2666px;}
	.st7{fill:url(#SVGID_4_);}
	.st8{fill:url(#SVGID_5_);}
	.st9{fill:url(#SVGID_6_);}
	.st10{fill:url(#SVGID_7_);}
	.st11{fill:url(#SVGID_8_);}
	.st12{fill:url(#SVGID_9_);}
	.st13{fill:url(#SVGID_10_);}
	.st14{fill:url(#SVGID_11_);}
	.st15{fill:url(#SVGID_12_);}
	.st16{display:none;}
	.st17{display:inline;}
	.st18{font-size:86.2891px;}
	.st19{display:inline;fill:#FFFDFF;}
	.st20{font-size:79.7409px;}
	.st21{fill:#FFFDFF;}
</style>
<g>
	<g>
		<linearGradient id="SVGID_1_" gradientUnits="userSpaceOnUse" x1="49" y1="248.9354" x2="251.462" y2="248.9354">
			<stop  offset="1.070886e-06" style="stop-color:#F05E60"/>
			<stop  offset="1" style="stop-color:#360D3D"/>
		</linearGradient>
		<path class="st0" d="M49.01,147.75c1.11,0,1.9,0,2.69,0c33.21,0,66.41-0.17,99.62,0.05c27.09,0.18,50.39,10.1,69.78,28.95
			c15.28,14.85,25.04,32.87,28.66,53.86c5.39,31.2-1.95,59.3-22.3,83.65c-15.04,17.99-34.3,29.41-57.31,33.93
			c-55.87,11-106.58-24.96-118.52-76.25C49.87,264.4,49,256.76,49,249.01c0.02-32.7,0.01-65.39,0.01-98.09
			C49.01,149.98,49.01,149.05,49.01,147.75z"/>
		<ellipse class="st1" cx="146.54" cy="301.1" rx="63.77" ry="36.84"/>
		
			<ellipse transform="matrix(0.4024 -0.9155 0.9155 0.4024 -49.3479 274.9894)" class="st1" cx="185.95" cy="175.29" rx="13.73" ry="23.77"/>
	</g>
	<g>
		<path class="st2" d="M160.87,210.25c-0.39,0.52-0.87,1.09-1.28,1.71c-9.66,14.54-19.31,29.1-28.99,43.63
			c-0.87,1.31-1.27,2.64-1.26,4.21c0.04,8.46,0.02,16.93,0.02,25.39c0,0.64,0.05,1.28,0.11,1.92c0.04,0.51,0.53,0.96,1.09,0.98
			c1.18,0.04,2.36,0.08,3.53,0.08c23.89,0,84.58,0,108.48,0.01c1.17,0,2.34,0.12,3.51,0.19c0.23,0.01,0.53,0.54,0.45,0.74
			c-0.08,0.2-0.14,0.41-0.25,0.59c-0.26,0.47-0.54,0.93-0.83,1.38c-3.14,4.98-6.29,9.97-9.43,14.95c-0.29,0.45-0.56,0.91-0.88,1.35
			c-0.39,0.54-0.9,0.89-1.61,0.89c-0.86-0.01-1.71,0.03-2.57,0.03c-26.79,0-90.37,0-117.16,0c-4.33,0-4.08,0.27-4.08-3.94
			c0-14.36,0.01-28.71-0.01-43.07c0-4.18,0.35-2.99-1.97-6.54c-13.1-20.1-26.23-40.2-39.34-60.29c-0.58-0.9-1.15-1.8-1.71-2.72
			c-0.3-0.49,0.06-1.05,0.69-1.08c0.43-0.02,0.86-0.05,1.28-0.05c6.32,0,12.64,0,18.96,0c0.32,0,0.64,0.01,0.96,0.02
			c0.79,0.01,1.45,0.25,1.9,0.97c0.56,0.91,1.18,1.79,1.75,2.69c8.31,12.99,16.62,25.99,24.95,38.98c0.58,0.9,1.22,1.75,1.84,2.62
			c0.15,0.21,0.7,0.17,0.86-0.06c0.62-0.87,1.25-1.74,1.83-2.63c8.5-13.13,16.98-26.28,25.49-39.4c2.37-3.65,1.43-3.19,5.84-3.2
			c17.68-0.02,35.36-0.01,53.04-0.01c0.54,0,1.08-0.04,1.61,0.01c0.7,0.07,1.62-0.31,1.98,0.55c0.27,0.63-0.34,1.18-0.67,1.7
			c-3.23,5.06-6.47,10.11-9.7,15.16c-0.17,0.27-0.37,0.53-0.53,0.8c-0.48,0.81-1.17,1.2-2.13,1.16c-0.96-0.03-1.93,0-2.89,0
			c-9.75,0-19.5,0-29.25,0.01C163.33,210,162.14,209.84,160.87,210.25z"/>
		<path class="st2" d="M198.55,258.85c-0.94,0.04-1.79,0.11-2.64,0.11c-17.66,0.01-35.32,0.01-52.98,0c-2.28,0-2.64-0.09-2.67-0.52
			c-0.07-0.95,0.59-1.57,1.03-2.27c3.06-4.9,6.15-9.78,9.24-14.67c0.34-0.54,0.69-1.08,1.07-1.6c0.32-0.45,0.77-0.74,1.34-0.77
			c0.64-0.03,1.28-0.05,1.92-0.05c17.45,0,34.89,0,52.34,0.01c0.74,0,1.49,0.1,2.22,0.2c0.12,0.02,0.3,0.34,0.28,0.5
			c-0.03,0.31-0.14,0.63-0.3,0.9c-3.41,5.82-6.83,11.63-10.25,17.43C199.05,258.31,198.89,258.46,198.55,258.85z"/>
	</g>
	<g>
		<linearGradient id="SVGID_2_" gradientUnits="userSpaceOnUse" x1="158.9089" y1="249.4308" x2="195.6912" y2="249.4308">
			<stop  offset="1.070886e-06" style="stop-color:#F05E60"/>
			<stop  offset="1" style="stop-color:#360D3D"/>
		</linearGradient>
		<polygon class="st3" points="158.91,250.98 193.69,250.98 195.69,247.88 160.95,247.88 		"/>
		<linearGradient id="SVGID_3_" gradientUnits="userSpaceOnUse" x1="80.6087" y1="249.269" x2="239.1073" y2="249.269">
			<stop  offset="1.070886e-06" style="stop-color:#F05E60"/>
			<stop  offset="1" style="stop-color:#360D3D"/>
		</linearGradient>
		<polygon class="st4" points="120.86,253.46 156.77,201.86 193.71,201.86 195.54,198.75 154.72,198.75 154.72,199.35 
			119.32,250.24 84.36,198.61 80.61,198.61 117.76,253.49 117.76,296.82 117.76,299.93 120.87,299.93 237.34,299.93 239.11,296.82 
			120.87,296.82 		"/>
	</g>
	<text transform="matrix(1 0 0 1 318.9668 296.7988)" class="st5 st6">Your</text>
	<g>
		<linearGradient id="SVGID_4_" gradientUnits="userSpaceOnUse" x1="546.765" y1="259.5867" x2="586.8619" y2="259.5867">
			<stop  offset="0" style="stop-color:#3F113F"/>
			<stop  offset="1" style="stop-color:#E3585E"/>
		</linearGradient>
		<path class="st7" d="M586.86,222.37V232H556.4v22.75h30.47v9.63H556.4v22.75h30.47v9.68h-40.1v-74.43H586.86z"/>
		<linearGradient id="SVGID_5_" gradientUnits="userSpaceOnUse" x1="596.166" y1="272.8681" x2="637.1475" y2="272.8681">
			<stop  offset="0" style="stop-color:#3F113F"/>
			<stop  offset="1" style="stop-color:#E3585E"/>
		</linearGradient>
		<path class="st8" d="M634.82,248.94l-12.65,21.86l14.98,26h-11.12l-9.35-16.1l-9.3,16.1h-11.21l15.02-26l-12.61-21.86h11.12
			l6.98,11.95l6.93-11.95H634.82z"/>
		<linearGradient id="SVGID_6_" gradientUnits="userSpaceOnUse" x1="644.823" y1="271.5423" x2="695.1539" y2="271.5423">
			<stop  offset="0" style="stop-color:#3F113F"/>
			<stop  offset="1" style="stop-color:#E3585E"/>
		</linearGradient>
		<path class="st9" d="M662.5,285.96c1.61,1.43,4.55,2.14,8.8,2.14c4.59,0,8.51-1.61,11.77-4.84c0.4-0.43,1.22-1.39,2.46-2.88
			l9.63,3.44c-2.36,3.26-4.06,5.41-5.12,6.47c-5.18,5.18-11.43,7.77-18.74,7.77c-7.29,0-13.52-2.59-18.7-7.77
			c-5.18-5.18-7.77-11.43-7.77-18.75c0-7.32,2.59-13.57,7.77-18.75c5.18-5.18,11.41-7.77,18.7-7.77c6.26,0,11.75,1.89,16.47,5.67
			c0.77,0.65,1.53,1.35,2.28,2.09c0.31,0.31,1.19,1.29,2.65,2.93l-4.84,4.88L662.5,285.96z M678.59,256.19
			c-1.08-0.84-3.52-1.26-7.3-1.26c-4.56,0-8.46,1.62-11.7,4.86c-3.24,3.24-4.86,7.16-4.86,11.74c0,3.75,0.42,6.19,1.26,7.3
			L678.59,256.19z"/>
		<linearGradient id="SVGID_7_" gradientUnits="userSpaceOnUse" x1="706.3179" y1="272.2636" x2="729.2038" y2="272.2636">
			<stop  offset="0" style="stop-color:#3F113F"/>
			<stop  offset="1" style="stop-color:#E3585E"/>
		</linearGradient>
		<path class="st10" d="M715.95,255.4c3.6-4.87,8.02-7.43,13.26-7.67v10c-3.5,0.19-6.3,1.32-8.37,3.4
			c-3.13,3.1-4.76,6.79-4.88,11.07v24.61h-9.63v-47.87h9.63V255.4z"/>
		<linearGradient id="SVGID_8_" gradientUnits="userSpaceOnUse" x1="735.4368" y1="271.5423" x2="785.7676" y2="271.5423">
			<stop  offset="0" style="stop-color:#3F113F"/>
			<stop  offset="1" style="stop-color:#E3585E"/>
		</linearGradient>
		<path class="st11" d="M776.14,280.38l9.63,3.44c-2.36,3.26-4.06,5.41-5.12,6.47c-5.18,5.18-11.43,7.77-18.74,7.77
			c-7.29,0-13.52-2.59-18.7-7.77c-5.18-5.18-7.77-11.43-7.77-18.75c0-7.32,2.59-13.57,7.77-18.75c5.18-5.18,11.41-7.77,18.7-7.77
			c7.32,0,13.56,2.59,18.74,7.77c1.05,1.05,2.76,3.18,5.12,6.37l-9.63,3.53c-1.24-1.52-2.08-2.49-2.51-2.93
			c-3.23-3.23-7.14-4.84-11.72-4.84c-4.56,0-8.46,1.62-11.7,4.86c-3.24,3.24-4.86,7.16-4.86,11.74c0,4.56,1.62,8.46,4.86,11.7
			c3.24,3.24,7.14,4.86,11.7,4.86c4.59,0,8.51-1.61,11.77-4.84C774.08,282.83,774.9,281.87,776.14,280.38z"/>
		<linearGradient id="SVGID_9_" gradientUnits="userSpaceOnUse" x1="795.7703" y1="263.0298" x2="809.3068" y2="263.0298">
			<stop  offset="0" style="stop-color:#3F113F"/>
			<stop  offset="1" style="stop-color:#E3585E"/>
		</linearGradient>
		<path class="st12" d="M807.31,231.21c1.33,1.3,2,2.9,2,4.79c0,1.89-0.67,3.49-2,4.79s-2.93,1.95-4.79,1.95
			c-1.83,0-3.41-0.65-4.74-1.95s-2-2.9-2-4.79c0-1.89,0.67-3.49,2-4.79c1.33-1.3,2.91-1.95,4.74-1.95
			C804.38,229.26,805.97,229.91,807.31,231.21z M807.35,248.94v47.87h-9.63v-47.87H807.35z"/>
		<linearGradient id="SVGID_10_" gradientUnits="userSpaceOnUse" x1="820.8927" y1="272.6821" x2="851.2681" y2="272.6821">
			<stop  offset="0" style="stop-color:#3F113F"/>
			<stop  offset="1" style="stop-color:#E3585E"/>
		</linearGradient>
		<path class="st13" d="M831.78,286.52c1.15,1.12,2.51,1.67,4.09,1.67c1.58,0,2.94-0.56,4.07-1.67c1.13-1.12,1.7-2.5,1.7-4.14
			c0-1.58-0.56-2.93-1.67-4.05c-0.78-0.77-2.44-1.97-4.98-3.58c-3.47-1.89-5.94-3.57-7.4-5.02c-2.54-2.54-3.82-5.6-3.82-9.16
			c0-3.6,1.27-6.68,3.82-9.23c2.54-2.56,5.61-3.84,9.21-3.84c3.6,0,6.59,1.21,8.98,3.63c1.7,1.71,2.79,3.61,3.25,5.72l-9.35,2.7
			c-0.22-0.78-0.44-1.29-0.65-1.54c-0.56-0.56-1.3-0.84-2.24-0.84c-0.93,0-1.73,0.33-2.4,1c-0.67,0.67-1,1.47-1,2.4
			s0.33,1.72,0.98,2.37c0.59,0.56,1.92,1.5,4,2.84c3.85,2.11,6.64,4.03,8.37,5.77c3.01,3.04,4.51,6.65,4.51,10.84
			c0,4.28-1.5,7.93-4.49,10.96c-2.99,3.02-6.63,4.54-10.91,4.54c-4.25,0-7.88-1.52-10.88-4.56c-2.08-2.08-3.44-4.67-4.09-7.77
			l9.58-2.05C830.75,284.92,831.19,285.93,831.78,286.52z"/>
		<linearGradient id="SVGID_11_" gradientUnits="userSpaceOnUse" x1="860.3363" y1="271.5423" x2="910.6672" y2="271.5423">
			<stop  offset="0" style="stop-color:#3F113F"/>
			<stop  offset="1" style="stop-color:#E3585E"/>
		</linearGradient>
		<path class="st14" d="M878.01,285.96c1.61,1.43,4.55,2.14,8.8,2.14c4.59,0,8.51-1.61,11.77-4.84c0.4-0.43,1.22-1.39,2.46-2.88
			l9.63,3.44c-2.36,3.26-4.06,5.41-5.12,6.47c-5.18,5.18-11.43,7.77-18.74,7.77c-7.29,0-13.52-2.59-18.7-7.77
			c-5.18-5.18-7.77-11.43-7.77-18.75c0-7.32,2.59-13.57,7.77-18.75c5.18-5.18,11.41-7.77,18.7-7.77c6.26,0,11.75,1.89,16.47,5.67
			c0.77,0.65,1.53,1.35,2.28,2.09c0.31,0.31,1.19,1.29,2.65,2.93l-4.84,4.88L878.01,285.96z M894.1,256.19
			c-1.08-0.84-3.52-1.26-7.3-1.26c-4.56,0-8.46,1.62-11.7,4.86c-3.24,3.24-4.86,7.16-4.86,11.74c0,3.75,0.42,6.19,1.26,7.3
			L894.1,256.19z"/>
		<linearGradient id="SVGID_12_" gradientUnits="userSpaceOnUse" x1="920.6245" y1="272.6821" x2="951" y2="272.6821">
			<stop  offset="0" style="stop-color:#3F113F"/>
			<stop  offset="1" style="stop-color:#E3585E"/>
		</linearGradient>
		<path class="st15" d="M931.51,286.52c1.15,1.12,2.51,1.67,4.09,1.67c1.58,0,2.94-0.56,4.07-1.67c1.13-1.12,1.7-2.5,1.7-4.14
			c0-1.58-0.56-2.93-1.67-4.05c-0.78-0.77-2.44-1.97-4.98-3.58c-3.47-1.89-5.94-3.57-7.4-5.02c-2.54-2.54-3.82-5.6-3.82-9.16
			c0-3.6,1.27-6.68,3.82-9.23c2.54-2.56,5.61-3.84,9.21-3.84c3.6,0,6.59,1.21,8.98,3.63c1.7,1.71,2.79,3.61,3.25,5.72l-9.35,2.7
			c-0.22-0.78-0.44-1.29-0.65-1.54c-0.56-0.56-1.3-0.84-2.24-0.84c-0.93,0-1.73,0.33-2.4,1c-0.67,0.67-1,1.47-1,2.4
			s0.33,1.72,0.98,2.37c0.59,0.56,1.92,1.5,4,2.84c3.85,2.11,6.64,4.03,8.37,5.77c3.01,3.04,4.51,6.65,4.51,10.84
			c0,4.28-1.5,7.93-4.49,10.96c-2.99,3.02-6.63,4.54-10.91,4.54c-4.25,0-7.88-1.52-10.88-4.56c-2.08-2.08-3.44-4.67-4.09-7.77
			l9.58-2.05C930.48,284.92,930.92,285.93,931.51,286.52z"/>
	</g>
</g>
<g class="st16">
	<g class="st17">
		<path d="M164.7,299.14c-3.92,0-3.7,0.24-3.7-3.57c0-13,0.01-26.01-0.01-39.01c0-3.78,0.32-2.71-1.78-5.93
			c-11.87-18.21-23.76-36.41-35.63-54.61c-0.53-0.81-1.04-1.63-1.55-2.46c-0.27-0.45,0.06-0.95,0.62-0.98
			c0.39-0.02,0.77-0.05,1.16-0.05c5.73,0,11.45,0,17.18,0c0.29,0,0.58,0.01,0.87,0.02c0.72,0.01,1.32,0.23,1.72,0.88
			c0.51,0.82,1.06,1.62,1.59,2.44c7.53,11.77,15.06,23.54,22.59,35.31c0.52,0.81,1.1,1.59,1.66,2.38c0.14,0.19,0.63,0.16,0.78-0.05
			c0.56-0.79,1.13-1.57,1.66-2.39c7.7-11.89,15.38-23.8,23.09-35.68c2.14-3.3,1.3-2.89,5.29-2.9c16.01-0.02,32.03-0.01,48.04-0.01
			c0.48,0,0.97-0.04,1.45,0.01c0.63,0.06,1.46-0.28,1.79,0.5c0.24,0.57-0.31,1.07-0.61,1.54c-2.92,4.58-5.86,9.15-8.79,13.73
			c-0.16,0.25-0.33,0.48-0.48,0.73c-0.43,0.74-1.06,1.08-1.93,1.05c-0.87-0.03-1.75,0-2.62,0c-8.83,0-17.66,0-26.49,0.01
			c-1.06,0-2.14-0.14-3.29,0.23c-0.35,0.47-0.78,0.99-1.16,1.55c-8.75,13.17-17.49,26.36-26.26,39.52
			c-0.79,1.18-1.15,2.39-1.14,3.81c0.04,7.67,0.01,15.33,0.02,23c0,0.58,0.05,1.16,0.1,1.74c0.04,0.46,0.48,0.87,0.99,0.89
			c1.07,0.04,2.13,0.07,3.2,0.07c21.64,0,76.61,0,98.25,0.01c0.32,0,0.64,0.04,0.96,0.05c6.93-16.06,8.77-33.51,5.54-52.2
			c-3.28-19.01-12.12-35.33-25.96-48.78c-17.56-17.07-38.66-26.06-63.2-26.22c-30.08-0.2-60.15-0.05-90.23-0.05
			c-0.71,0-1.43,0-2.44,0c0,1.17,0,2.02,0,2.87c0,29.62,0.01,59.23-0.01,88.85c0,7.02,0.79,13.94,2.38,20.78
			c10.81,46.46,56.75,79.03,107.35,69.07c20.84-4.1,38.29-14.44,51.91-30.74c1.49-1.78,2.87-3.6,4.21-5.42
			c-0.34,0.01-0.69,0.01-1.03,0.01C246.55,299.14,188.96,299.14,164.7,299.14z M251.29,237.92c-3.09,5.27-6.19,10.53-9.29,15.79
			c-0.1,0.16-0.25,0.3-0.54,0.65c-0.85,0.04-1.62,0.1-2.39,0.1c-16,0.01-31.99,0.01-47.99,0c-2.07,0-2.39-0.09-2.41-0.47
			c-0.06-0.86,0.54-1.42,0.93-2.06c2.77-4.44,5.57-8.86,8.37-13.29c0.31-0.49,0.63-0.98,0.97-1.45c0.29-0.41,0.7-0.67,1.22-0.69
			c0.58-0.03,1.16-0.04,1.74-0.04c15.8,0,31.6,0,47.41,0.01c0.67,0,1.35,0.09,2.01,0.19c0.11,0.02,0.27,0.31,0.25,0.45
			C251.53,237.38,251.44,237.67,251.29,237.92z"/>
		<polygon points="205.55,247.24 237.05,247.24 238.87,244.42 207.4,244.42 		"/>
		<polygon points="278.19,288.75 171.1,288.75 171.09,249.48 203.61,202.74 237.07,202.74 238.73,199.92 201.76,199.92 
			201.76,200.47 169.69,246.56 138.03,199.8 134.63,199.8 168.28,249.51 168.28,288.75 168.28,291.57 171.1,291.57 276.59,291.57 		
			"/>
	</g>
	<text transform="matrix(1 0 0 1 350.5273 288.7363)" class="st17 st5 st18">Your</text>
	<g class="st17">
		<path d="M593.18,221.32v8.72h-27.6v20.6h27.6v8.72h-27.6v20.6h27.6v8.76h-36.32v-67.41H593.18z"/>
		<path d="M636.62,245.38l-11.46,19.8l13.57,23.55h-10.07l-8.47-14.58l-8.43,14.58H601.6l13.61-23.55l-11.42-19.8h10.07l6.32,10.83
			l6.28-10.83H636.62z"/>
		<path d="M661.68,278.92c1.46,1.29,4.12,1.94,7.97,1.94c4.15,0,7.71-1.46,10.66-4.38c0.37-0.39,1.11-1.26,2.23-2.61l8.72,3.12
			c-2.14,2.95-3.68,4.9-4.63,5.86c-4.69,4.69-10.35,7.04-16.98,7.04c-6.6,0-12.25-2.35-16.94-7.04c-4.69-4.69-7.03-10.35-7.03-16.98
			s2.35-12.29,7.03-16.98c4.69-4.69,10.34-7.04,16.94-7.04c5.67,0,10.64,1.71,14.92,5.14c0.7,0.59,1.39,1.22,2.06,1.9
			c0.28,0.28,1.08,1.16,2.4,2.65l-4.38,4.42L661.68,278.92z M676.26,251.95c-0.98-0.76-3.19-1.14-6.61-1.14
			c-4.13,0-7.66,1.47-10.6,4.4c-2.94,2.93-4.4,6.48-4.4,10.64c0,3.4,0.38,5.6,1.14,6.62L676.26,251.95z"/>
		<path d="M710.1,251.23c3.26-4.41,7.26-6.73,12.01-6.95v9.06c-3.17,0.17-5.7,1.19-7.58,3.08c-2.84,2.81-4.31,6.15-4.42,10.03v22.29
			h-8.72v-43.35h8.72V251.23z"/>
		<path d="M764.62,273.86l8.72,3.12c-2.14,2.95-3.68,4.9-4.63,5.86c-4.69,4.69-10.35,7.04-16.98,7.04c-6.6,0-12.25-2.35-16.94-7.04
			c-4.69-4.69-7.03-10.35-7.03-16.98s2.35-12.29,7.03-16.98c4.69-4.69,10.34-7.04,16.94-7.04c6.63,0,12.29,2.35,16.98,7.04
			c0.95,0.96,2.5,2.88,4.63,5.77l-8.72,3.2c-1.12-1.37-1.88-2.26-2.27-2.65c-2.92-2.92-6.46-4.38-10.62-4.38
			c-4.13,0-7.66,1.47-10.6,4.4c-2.94,2.93-4.4,6.48-4.4,10.64c0,4.13,1.47,7.66,4.4,10.6c2.93,2.94,6.47,4.4,10.6,4.4
			c4.15,0,7.71-1.46,10.66-4.38C762.75,276.08,763.49,275.21,764.62,273.86z"/>
		<path d="M792.85,229.33c1.21,1.18,1.81,2.63,1.81,4.34c0,1.72-0.6,3.16-1.81,4.34s-2.65,1.77-4.34,1.77
			c-1.66,0-3.09-0.59-4.3-1.77s-1.81-2.63-1.81-4.34c0-1.71,0.6-3.16,1.81-4.34s2.64-1.77,4.3-1.77
			C790.19,227.56,791.64,228.15,792.85,229.33z M792.89,245.38v43.35h-8.72v-43.35H792.89z"/>
		<path d="M815.01,279.42c1.04,1.01,2.28,1.52,3.71,1.52c1.43,0,2.66-0.51,3.69-1.52c1.02-1.01,1.54-2.26,1.54-3.75
			c0-1.43-0.51-2.65-1.52-3.67c-0.7-0.7-2.21-1.78-4.51-3.24c-3.15-1.71-5.38-3.23-6.7-4.55c-2.3-2.3-3.46-5.07-3.46-8.3
			c0-3.26,1.15-6.05,3.46-8.36c2.31-2.32,5.08-3.48,8.34-3.48c3.26,0,5.97,1.1,8.14,3.29c1.54,1.54,2.53,3.27,2.95,5.18l-8.47,2.44
			c-0.2-0.7-0.39-1.16-0.59-1.39c-0.51-0.51-1.18-0.76-2.03-0.76c-0.84,0-1.57,0.3-2.17,0.91s-0.9,1.33-0.9,2.17s0.3,1.56,0.88,2.15
			c0.53,0.51,1.74,1.36,3.62,2.57c3.48,1.91,6.01,3.65,7.59,5.22c2.72,2.75,4.09,6.03,4.09,9.82c0,3.88-1.36,7.18-4.07,9.92
			s-6,4.11-9.88,4.11c-3.85,0-7.13-1.38-9.86-4.13c-1.88-1.88-3.12-4.23-3.71-7.04l8.68-1.85
			C814.08,277.98,814.48,278.89,815.01,279.42z"/>
		<path d="M856.89,278.92c1.46,1.29,4.12,1.94,7.97,1.94c4.15,0,7.71-1.46,10.66-4.38c0.37-0.39,1.11-1.26,2.23-2.61l8.72,3.12
			c-2.14,2.95-3.68,4.9-4.63,5.86c-4.69,4.69-10.35,7.04-16.98,7.04c-6.6,0-12.25-2.35-16.94-7.04c-4.69-4.69-7.03-10.35-7.03-16.98
			s2.35-12.29,7.03-16.98c4.69-4.69,10.34-7.04,16.94-7.04c5.67,0,10.64,1.71,14.92,5.14c0.7,0.59,1.39,1.22,2.06,1.9
			c0.28,0.28,1.08,1.16,2.4,2.65l-4.38,4.42L856.89,278.92z M871.47,251.95c-0.98-0.76-3.19-1.14-6.61-1.14
			c-4.13,0-7.66,1.47-10.6,4.4c-2.94,2.93-4.4,6.48-4.4,10.64c0,3.4,0.38,5.6,1.14,6.62L871.47,251.95z"/>
		<path d="M905.34,279.42c1.04,1.01,2.28,1.52,3.71,1.52c1.43,0,2.66-0.51,3.69-1.52c1.02-1.01,1.54-2.26,1.54-3.75
			c0-1.43-0.51-2.65-1.52-3.67c-0.7-0.7-2.21-1.78-4.51-3.24c-3.15-1.71-5.38-3.23-6.7-4.55c-2.3-2.3-3.46-5.07-3.46-8.3
			c0-3.26,1.15-6.05,3.46-8.36c2.31-2.32,5.08-3.48,8.34-3.48c3.26,0,5.97,1.1,8.14,3.29c1.54,1.54,2.53,3.27,2.95,5.18l-8.47,2.44
			c-0.2-0.7-0.39-1.16-0.59-1.39c-0.51-0.51-1.18-0.76-2.03-0.76c-0.84,0-1.57,0.3-2.17,0.91s-0.9,1.33-0.9,2.17s0.3,1.56,0.88,2.15
			c0.53,0.51,1.74,1.36,3.62,2.57c3.48,1.91,6.01,3.65,7.59,5.22c2.72,2.75,4.09,6.03,4.09,9.82c0,3.88-1.36,7.18-4.07,9.92
			s-6,4.11-9.88,4.11c-3.85,0-7.13-1.38-9.86-4.13c-1.88-1.88-3.12-4.23-3.71-7.04l8.68-1.85
			C904.42,277.98,904.81,278.89,905.34,279.42z"/>
	</g>
</g>
<g class="st16">
	<g class="st17">
		<path class="st2" d="M176.75,299.68c-3.63,0-3.42,0.22-3.42-3.29c0-12.02,0.01-24.04-0.01-36.05c0-3.5,0.29-2.5-1.65-5.48
			c-10.97-16.83-21.95-33.64-32.93-50.47c-0.49-0.75-0.96-1.51-1.43-2.28c-0.25-0.41,0.05-0.88,0.58-0.91
			c0.36-0.02,0.72-0.04,1.07-0.04c5.29,0,10.58,0,15.87,0c0.27,0,0.54,0.01,0.81,0.01c0.66,0.01,1.22,0.21,1.59,0.81
			c0.47,0.76,0.98,1.5,1.47,2.25c6.96,10.88,13.92,21.76,20.88,32.63c0.48,0.75,1.02,1.47,1.54,2.2c0.13,0.18,0.58,0.14,0.72-0.05
			c0.51-0.73,1.04-1.45,1.53-2.21c7.11-10.99,14.21-21.99,21.34-32.98c1.98-3.05,1.2-2.67,4.89-2.68c14.8-0.02,29.6-0.01,44.39-0.01
			c0.45,0,0.9-0.03,1.34,0.01c0.58,0.06,1.35-0.26,1.66,0.46c0.23,0.53-0.28,0.99-0.56,1.43c-2.7,4.23-5.41,8.46-8.12,12.69
			c-0.15,0.23-0.31,0.44-0.44,0.67c-0.4,0.68-0.98,1-1.78,0.97c-0.81-0.03-1.61,0-2.42,0c-8.16,0-16.32,0-24.48,0.01
			c-0.98,0-1.97-0.13-3.04,0.21c-0.33,0.43-0.73,0.91-1.07,1.43c-8.09,12.17-16.16,24.36-24.27,36.52
			c-0.73,1.09-1.06,2.21-1.06,3.52c0.04,7.08,0.01,14.17,0.02,21.25c0,0.54,0.04,1.07,0.09,1.61c0.04,0.43,0.45,0.81,0.92,0.82
			c0.98,0.04,1.97,0.06,2.96,0.06c20,0,70.8,0,90.8,0.01c0.3,0,0.59,0.03,0.89,0.05c6.4-14.84,8.11-30.97,5.12-48.24
			c-3.03-17.56-11.2-32.65-23.99-45.08c-16.23-15.78-35.73-24.08-58.41-24.23c-27.79-0.19-55.59-0.04-83.38-0.04
			c-0.66,0-1.32,0-2.25,0c0,1.08,0,1.87,0,2.65c0,27.37,0.01,54.74,0,82.1c0,6.49,0.73,12.88,2.2,19.2
			c9.99,42.94,52.44,73.03,99.21,63.83c19.26-3.79,35.38-13.34,47.97-28.4c1.38-1.65,2.66-3.32,3.89-5.01
			c-0.32,0.01-0.64,0.01-0.95,0.01C252.39,299.68,199.17,299.68,176.75,299.68z M256.77,243.11c-2.85,4.87-5.72,9.73-8.58,14.59
			c-0.09,0.15-0.23,0.27-0.5,0.6c-0.79,0.04-1.5,0.1-2.21,0.1c-14.78,0.01-29.56,0.01-44.35,0c-1.91,0-2.21-0.08-2.23-0.44
			c-0.06-0.79,0.5-1.31,0.86-1.9c2.56-4.1,5.15-8.19,7.73-12.28c0.29-0.45,0.58-0.9,0.89-1.34c0.27-0.38,0.65-0.62,1.12-0.64
			c0.54-0.03,1.07-0.04,1.61-0.04c14.6,0,29.21,0,43.81,0.01c0.62,0,1.24,0.08,1.86,0.17c0.1,0.02,0.25,0.28,0.23,0.42
			C256.99,242.61,256.9,242.88,256.77,243.11z"/>
		<polygon class="st2" points="214.5,251.72 243.61,251.72 245.28,249.11 216.21,249.11 		"/>
		<polygon class="st2" points="281.63,290.08 182.66,290.08 182.65,253.79 212.7,210.59 243.62,210.59 245.16,207.99 210.99,207.99 
			210.99,208.5 181.36,251.09 152.1,207.88 148.96,207.88 180.06,253.82 180.06,290.08 180.06,292.68 182.66,292.68 280.15,292.68 
					"/>
	</g>
	<text transform="matrix(1 0 0 1 348.4712 290.0631)" class="st19 st5 st20">Your</text>
	<g class="st17">
		<path class="st21" d="M572.71,227.77v8.06h-25.5v19.04h25.5v8.06h-25.5v19.04h25.5v8.1h-33.56v-62.3H572.71z"/>
		<path class="st21" d="M612.85,250l-10.59,18.3l12.54,21.76h-9.31l-7.83-13.47l-7.79,13.47h-9.38l12.58-21.76L582.52,250h9.31
			l5.84,10.01l5.8-10.01H612.85z"/>
		<path class="st21" d="M636.01,280.99c1.35,1.19,3.8,1.79,7.36,1.79c3.84,0,7.12-1.35,9.85-4.05c0.34-0.36,1.03-1.17,2.06-2.41
			l8.06,2.88c-1.97,2.73-3.4,4.53-4.28,5.41c-4.34,4.33-9.56,6.5-15.69,6.5c-6.1,0-11.32-2.17-15.66-6.5
			c-4.33-4.33-6.5-9.56-6.5-15.69s2.17-11.36,6.5-15.69c4.34-4.33,9.55-6.5,15.66-6.5c5.24,0,9.83,1.58,13.78,4.75
			c0.65,0.54,1.28,1.13,1.91,1.75c0.26,0.26,1,1.08,2.22,2.45l-4.05,4.09L636.01,280.99z M649.49,256.07
			c-0.91-0.7-2.95-1.05-6.11-1.05c-3.82,0-7.08,1.36-9.79,4.07c-2.71,2.71-4.07,5.99-4.07,9.83c0,3.14,0.35,5.18,1.05,6.11
			L649.49,256.07z"/>
		<path class="st21" d="M680.76,255.41c3.01-4.07,6.71-6.22,11.1-6.42v8.37c-2.93,0.16-5.27,1.1-7.01,2.84
			c-2.62,2.6-3.98,5.68-4.09,9.27v20.6h-8.06V250h8.06V255.41z"/>
		<path class="st21" d="M731.13,276.32l8.06,2.88c-1.97,2.73-3.4,4.53-4.28,5.41c-4.34,4.33-9.56,6.5-15.69,6.5
			c-6.1,0-11.32-2.17-15.66-6.5c-4.33-4.33-6.5-9.56-6.5-15.69s2.17-11.36,6.5-15.69c4.34-4.33,9.55-6.5,15.66-6.5
			c6.12,0,11.35,2.17,15.69,6.5c0.88,0.88,2.31,2.66,4.28,5.33l-8.06,2.96c-1.04-1.27-1.74-2.09-2.1-2.45
			c-2.7-2.7-5.97-4.05-9.81-4.05c-3.82,0-7.08,1.36-9.79,4.07c-2.71,2.71-4.07,5.99-4.07,9.83c0,3.82,1.36,7.08,4.07,9.79
			c2.71,2.71,5.98,4.07,9.79,4.07c3.84,0,7.12-1.35,9.85-4.05C729.41,278.37,730.1,277.57,731.13,276.32z"/>
		<path class="st21" d="M757.22,235.16c1.12,1.09,1.67,2.43,1.67,4.01c0,1.59-0.56,2.92-1.67,4.01s-2.45,1.63-4.01,1.63
			c-1.53,0-2.86-0.54-3.97-1.63s-1.67-2.43-1.67-4.01c0-1.58,0.56-2.92,1.67-4.01c1.12-1.09,2.44-1.63,3.97-1.63
			C754.77,233.53,756.11,234.08,757.22,235.16z M757.26,250v40.06h-8.06V250H757.26z"/>
		<path class="st21" d="M777.71,281.46c0.96,0.93,2.1,1.4,3.42,1.4c1.33,0,2.46-0.47,3.41-1.4c0.95-0.94,1.42-2.09,1.42-3.47
			c0-1.32-0.47-2.45-1.4-3.39c-0.65-0.65-2.04-1.65-4.17-3c-2.91-1.58-4.97-2.98-6.19-4.21c-2.13-2.13-3.19-4.69-3.19-7.67
			c0-3.01,1.07-5.59,3.19-7.73c2.13-2.14,4.7-3.21,7.71-3.21c3.01,0,5.52,1.01,7.52,3.04c1.42,1.43,2.34,3.02,2.72,4.79l-7.83,2.26
			c-0.18-0.65-0.36-1.08-0.54-1.29c-0.47-0.47-1.09-0.7-1.87-0.7c-0.78,0-1.45,0.28-2,0.84c-0.56,0.56-0.84,1.23-0.84,2
			c0,0.78,0.27,1.44,0.82,1.99c0.49,0.47,1.61,1.26,3.35,2.38c3.22,1.77,5.56,3.37,7.01,4.83c2.52,2.54,3.78,5.57,3.78,9.07
			c0,3.58-1.25,6.64-3.76,9.17c-2.51,2.53-5.55,3.8-9.13,3.8c-3.55,0-6.59-1.27-9.11-3.82c-1.74-1.74-2.88-3.91-3.42-6.5l8.02-1.71
			C776.85,280.12,777.21,280.97,777.71,281.46z"/>
		<path class="st21" d="M816.41,280.99c1.35,1.19,3.8,1.79,7.36,1.79c3.84,0,7.12-1.35,9.85-4.05c0.34-0.36,1.03-1.17,2.06-2.41
			l8.06,2.88c-1.97,2.73-3.4,4.53-4.28,5.41c-4.34,4.33-9.56,6.5-15.69,6.5c-6.1,0-11.32-2.17-15.66-6.5
			c-4.33-4.33-6.5-9.56-6.5-15.69s2.17-11.36,6.5-15.69c4.34-4.33,9.55-6.5,15.66-6.5c5.24,0,9.83,1.58,13.78,4.75
			c0.65,0.54,1.28,1.13,1.91,1.75c0.26,0.26,1,1.08,2.22,2.45l-4.05,4.09L816.41,280.99z M829.88,256.07
			c-0.91-0.7-2.95-1.05-6.11-1.05c-3.82,0-7.08,1.36-9.79,4.07c-2.71,2.71-4.07,5.99-4.07,9.83c0,3.14,0.35,5.18,1.05,6.11
			L829.88,256.07z"/>
		<path class="st21" d="M861.18,281.46c0.96,0.93,2.1,1.4,3.42,1.4c1.33,0,2.46-0.47,3.41-1.4c0.95-0.94,1.42-2.09,1.42-3.47
			c0-1.32-0.47-2.45-1.4-3.39c-0.65-0.65-2.04-1.65-4.17-3c-2.91-1.58-4.97-2.98-6.19-4.21c-2.13-2.13-3.19-4.69-3.19-7.67
			c0-3.01,1.07-5.59,3.19-7.73c2.13-2.14,4.7-3.21,7.71-3.21c3.01,0,5.52,1.01,7.52,3.04c1.42,1.43,2.34,3.02,2.72,4.79l-7.83,2.26
			c-0.18-0.65-0.36-1.08-0.54-1.29c-0.47-0.47-1.09-0.7-1.87-0.7c-0.78,0-1.45,0.28-2,0.84c-0.56,0.56-0.84,1.23-0.84,2
			c0,0.78,0.27,1.44,0.82,1.99c0.49,0.47,1.61,1.26,3.35,2.38c3.22,1.77,5.56,3.37,7.01,4.83c2.52,2.54,3.78,5.57,3.78,9.07
			c0,3.58-1.25,6.64-3.76,9.17c-2.51,2.53-5.55,3.8-9.13,3.8c-3.55,0-6.59-1.27-9.11-3.82c-1.74-1.74-2.88-3.91-3.42-6.5l8.02-1.71
			C860.33,280.12,860.69,280.97,861.18,281.46z"/>
	</g>
</g>
</svg>
